<svg width="300" height="300" viewBox="0 0 300 300" fill="none" xmlns="http://www.w3.org/2000/svg">
<rect width="300" height="300" fill="black"/>
<path d="M156.322 57.1366C155.662 60.4333 155.037 63.7367 154.418 67.0402C153.671 71.0302 152.943 75.0202 152.216 79.0102C150.653 87.6155 149.103 96.2209 147.526 104.819C146.812 108.707 146.092 112.595 145.351 116.483C145.032 118.169 144.705 119.848 144.379 121.527C144.23 122.282 144.08 123.036 143.93 123.797C143.835 124.26 143.74 124.715 143.652 125.177C143.625 125.3 143.597 125.429 143.57 125.551C143.461 126.061 143.332 126.557 143.19 127.06C142.897 128.086 142.537 129.079 142.109 130.051C141.225 132.063 140.063 133.946 138.656 135.638C135.828 139.037 132.103 141.572 127.91 142.959C124.096 144.216 120.025 144.481 116.076 143.72C111.807 142.898 107.851 140.92 104.643 137.99C101.394 135.026 99.0351 131.213 97.8388 126.978C96.7513 123.118 96.6629 119.046 97.5805 115.144C98.5865 110.889 100.755 106.995 103.848 103.902C104.242 103.508 104.65 103.127 105.071 102.76C105.404 102.468 105.744 102.189 106.091 101.91C106.757 101.366 107.436 100.829 108.123 100.299C108.945 99.6603 109.781 99.0281 110.618 98.4028C112.582 96.9278 114.567 95.4664 116.551 94.0185C118.706 92.4416 120.868 90.8646 123.022 89.2876C125.075 87.7855 127.128 86.2765 129.174 84.7539C130.071 84.0809 130.968 83.408 131.859 82.7283C132.62 82.1437 133.381 81.5524 134.136 80.9542C134.72 80.4852 135.305 80.0162 135.869 79.5268C136.719 78.7995 137.507 78.0178 138.248 77.1817C139.703 75.5232 140.919 73.6675 141.864 71.6759C144.889 65.2661 144.868 57.8435 141.81 51.4473C138.547 44.6296 132.226 39.79 124.79 38.4237C123.954 38.2674 123.111 38.1654 122.261 38.0975C121.309 38.0295 120.698 38.0363 119.739 38.0363H63.0509C62.6023 38.0363 62.1537 38.0363 61.7051 38.0363C61.2973 38.0363 60.8894 38.0363 60.4816 38.0635C56.9335 38.2266 53.4805 39.1918 50.3606 40.8776C47.0232 42.6856 44.1752 45.2686 42.0477 48.4089C40.0085 51.4201 38.6967 54.8527 38.2141 58.4485C37.7587 61.8199 38.0306 65.2457 39.0229 68.4948C40.1105 72.0702 42.0341 75.3261 44.6306 78.011C45.2899 78.6975 45.99 79.3297 46.7241 79.9346C46.9077 80.0842 47.0912 80.2269 47.2815 80.3696C47.3767 80.4444 47.4718 80.5124 47.567 80.5804C48.4574 81.2397 49.341 81.899 50.2315 82.5652C51.5637 83.5508 52.8892 84.5432 54.2214 85.5288C57.185 87.7311 60.1417 89.9402 63.0985 92.1493C65.9737 94.2972 68.8421 96.452 71.7037 98.6203C73.1447 99.7147 74.5857 100.809 76.0131 101.917C76.1083 101.992 76.1967 102.06 76.2918 102.134C77.7736 103.317 79.1126 104.677 80.2682 106.179C82.0762 108.524 83.422 111.188 84.2377 114.036C84.6251 115.376 84.8834 116.728 85.033 118.115C85.1689 119.434 85.1961 120.745 85.1145 122.064C84.931 124.878 84.2513 127.631 83.0958 130.2C81.8655 132.953 80.1118 135.441 77.9435 137.528C77.3998 138.058 76.8288 138.554 76.2306 139.023C76.1559 139.084 76.0811 139.139 76.0063 139.2C75.0275 139.954 74.0487 140.702 73.07 141.457C70.8813 143.122 68.679 144.78 66.4835 146.439C64.0909 148.24 61.6847 150.035 59.2853 151.822C56.9879 153.535 54.6904 155.248 52.393 156.954C51.3734 157.709 50.3606 158.463 49.341 159.218C48.7497 159.66 48.1583 160.102 47.567 160.537C47.4174 160.652 47.2679 160.761 47.1184 160.876C45.9085 161.814 44.8209 162.848 43.8149 163.996C41.8506 166.246 40.3348 168.85 39.3424 171.664C38.4316 174.26 37.9762 176.993 38.0102 179.746C38.0374 182.519 38.5607 185.258 39.5395 187.848C41.6942 193.524 45.9493 198.153 51.4278 200.77C53.9835 201.993 56.7432 202.741 59.564 202.985C62.2557 203.217 64.9677 202.985 67.5846 202.299C70.4395 201.551 73.1243 200.273 75.5033 198.533C76.7336 197.629 77.8552 196.637 78.8951 195.515C79.1534 195.237 79.4049 194.951 79.6496 194.659C79.772 194.516 79.8943 194.367 80.0099 194.217C80.2478 193.918 80.4789 193.619 80.7168 193.32C82.5044 191.056 84.2921 188.793 86.0661 186.516C89.1181 182.594 91.4699 179.474 94.3927 175.457C96.1463 173.05 97.8796 170.63 99.6197 168.211C100.191 167.415 100.762 166.62 101.333 165.818C101.36 165.777 101.387 165.743 101.414 165.702C101.638 165.397 101.863 165.098 102.101 164.798C105.819 160.129 111.161 157.05 117.068 156.166C118.407 155.969 119.739 155.88 121.092 155.914C122.465 155.948 123.818 156.098 125.163 156.363C128.059 156.941 130.819 158.062 133.306 159.66C138.445 162.963 142.095 168.129 143.495 174.077C144.794 179.603 144.066 185.394 141.436 190.424C138.588 195.869 133.728 199.981 127.896 201.891C127.209 202.115 126.523 202.306 125.816 202.469C125.469 202.55 125.129 202.618 124.776 202.68C124.688 202.693 124.606 202.714 124.518 202.727C124.164 202.788 123.811 202.85 123.451 202.911C122.173 203.135 120.888 203.366 119.61 203.597C117.054 204.059 114.505 204.528 111.957 205.011C101.72 206.935 91.5107 208.981 81.2809 210.931C76.0471 211.931 70.8133 212.903 65.5659 213.827C62.9558 214.289 60.3389 214.738 57.722 215.173C57.552 215.2 57.3753 215.234 57.2054 215.268C56.8587 215.336 56.5121 215.411 56.1654 215.486C55.4653 215.649 54.772 215.846 54.0855 216.077C51.2239 217.035 48.573 218.538 46.2755 220.502C43.9441 222.494 42.0273 224.92 40.6203 227.646C39.2948 230.215 38.4588 233.009 38.1461 235.884C37.8538 238.596 38.0306 241.342 38.6763 244C39.3764 246.896 40.6271 249.628 42.3468 252.055C45.8609 257.017 51.1559 260.429 57.1238 261.578C58.456 261.836 59.7883 261.972 61.1477 261.999C61.4876 261.999 61.8274 261.999 62.1673 261.999H119.535C120.215 261.999 120.895 262.006 121.581 261.979C122.954 261.918 124.293 261.741 125.632 261.442C128.501 260.81 131.22 259.641 133.653 258.009C134.924 257.16 136.087 256.208 137.167 255.127C137.704 254.59 138.221 254.026 138.703 253.442C138.948 253.149 139.179 252.85 139.404 252.544C139.458 252.47 139.519 252.395 139.573 252.313C139.764 252.055 139.961 251.79 140.151 251.531C140.811 250.634 141.463 249.737 142.122 248.84C145.698 243.946 149.266 239.052 152.896 234.205C154.704 231.785 156.526 229.379 158.388 227.007C159.34 225.79 160.305 224.587 161.29 223.404C161.413 223.262 161.535 223.112 161.657 222.969C161.909 222.684 162.16 222.398 162.426 222.127C162.956 221.576 163.499 221.053 164.077 220.556C165.233 219.564 166.449 218.701 167.775 217.946C170.29 216.512 173.036 215.554 175.898 215.112C178.555 214.704 181.267 214.758 183.911 215.261C186.78 215.812 189.512 216.886 191.986 218.436C193.278 219.244 194.467 220.162 195.582 221.202C196.139 221.725 196.67 222.269 197.173 222.84C197.424 223.126 197.669 223.418 197.907 223.71C198.022 223.86 198.145 224.009 198.253 224.159C198.308 224.234 198.369 224.308 198.423 224.383C198.994 225.158 199.579 225.926 200.157 226.694C200.945 227.734 201.727 228.781 202.522 229.814C205.778 234.103 209.054 238.372 212.29 242.675C213.9 244.816 215.498 246.964 217.075 249.125C217.802 250.124 218.529 251.13 219.25 252.136C219.467 252.442 219.698 252.748 219.936 253.04C220.412 253.639 220.908 254.21 221.439 254.76C222.499 255.861 223.641 256.84 224.891 257.717C227.325 259.423 230.064 260.653 232.96 261.347C235.617 261.979 238.357 262.149 241.069 261.843C243.944 261.517 246.738 260.667 249.3 259.335C252.019 257.921 254.439 255.99 256.417 253.645C258.368 251.341 259.856 248.683 260.801 245.822C261.25 244.462 261.569 243.096 261.766 241.675C261.95 240.336 262.024 239.004 261.984 237.658C261.895 234.831 261.297 232.044 260.216 229.434C259.054 226.62 257.362 224.057 255.227 221.882C253.086 219.707 250.551 217.967 247.75 216.763C246.405 216.186 245.038 215.737 243.611 215.418C243.264 215.343 242.924 215.268 242.578 215.207C242.489 215.193 242.408 215.18 242.319 215.159C242.279 215.153 242.231 215.146 242.19 215.139C241.762 215.071 241.334 214.996 240.906 214.928C239.662 214.718 238.418 214.507 237.174 214.289C231.961 213.385 226.754 212.427 221.554 211.455C216.171 210.442 210.794 209.409 205.424 208.369C200.15 207.349 194.882 206.33 189.607 205.324C187.099 204.848 184.584 204.372 182.076 203.91C180.866 203.686 179.656 203.461 178.446 203.244C177.454 203.067 176.468 202.883 175.476 202.707C175.306 202.68 175.129 202.646 174.96 202.612C174.613 202.544 174.266 202.469 173.92 202.387C167.979 200.946 162.84 197.262 159.564 192.103C157.987 189.615 156.886 186.849 156.328 183.953C155.812 181.282 155.764 178.542 156.179 175.858C157.11 169.876 160.298 164.486 165.097 160.795C166.905 159.401 168.903 158.28 171.038 157.464C172.064 157.07 173.104 156.75 174.171 156.506C174.429 156.445 174.694 156.39 174.953 156.336C175.082 156.309 175.211 156.288 175.347 156.261C176.333 156.084 177.325 155.908 178.311 155.738C182.348 155.017 186.379 154.297 190.416 153.563C206.179 150.708 221.914 147.751 237.636 144.706C239.39 144.366 241.15 144.019 242.904 143.679C242.972 143.666 243.033 143.652 243.101 143.639C243.23 143.611 243.359 143.584 243.495 143.557C247.947 142.578 252.019 140.328 255.22 137.079C258.415 133.837 260.597 129.745 261.515 125.286C262.364 121.174 262.092 116.912 260.747 112.935C259.258 108.565 256.519 104.724 252.869 101.89C249.341 99.1573 245.127 97.4851 240.688 97.0569C238.656 96.8598 236.61 96.9278 234.591 97.2608C232.43 97.6143 230.329 98.2736 228.344 99.2117C226.265 100.197 224.334 101.482 222.628 103.025C221.758 103.807 220.963 104.643 220.222 105.54C220.038 105.764 219.855 105.989 219.685 106.22C219.644 106.274 219.596 106.335 219.556 106.39C218.72 107.498 217.884 108.605 217.041 109.713C214.431 113.153 211.821 116.579 209.21 120.018C206.648 123.403 204.092 126.788 201.577 130.214C201.04 130.948 200.503 131.682 199.966 132.416C199.565 132.974 199.164 133.531 198.763 134.088C198.722 134.15 198.682 134.204 198.641 134.265C198.471 134.503 198.301 134.734 198.124 134.958C195.793 137.97 192.768 140.369 189.315 141.953C186.127 143.414 182.661 144.148 179.153 144.094C175.612 144.046 172.139 143.204 168.978 141.62C165.566 139.92 162.616 137.419 160.386 134.333C158.232 131.356 156.811 127.923 156.22 124.3C155.669 120.929 155.859 117.489 156.777 114.2C157.783 110.59 159.625 107.28 162.167 104.527C163.472 103.113 164.9 101.903 166.511 100.836C167.68 100.061 168.835 99.2524 169.977 98.4368C171.248 97.5259 172.506 96.6083 173.756 95.6771C175.116 94.6643 176.468 93.6379 177.814 92.6115C180.628 90.4636 183.429 88.2952 186.222 86.1337C187.575 85.0869 188.934 84.0402 190.294 82.9934C190.94 82.4972 191.585 82.001 192.231 81.5116C192.7 81.1581 193.162 80.7979 193.631 80.4444C194.012 80.1589 194.386 79.8598 194.746 79.554C195.473 78.9354 196.16 78.2761 196.812 77.576C199.355 74.8231 201.203 71.5128 202.209 67.9035C203.127 64.6136 203.317 61.1674 202.767 57.8027C201.55 50.3054 196.806 43.8616 190.008 40.4765C183.626 37.2954 176.149 37.173 169.665 40.1434C162.745 43.311 157.79 49.6256 156.342 57.0958L156.322 57.1366Z" fill="white"/>
<path d="M144 179.5C144 176.54 143.438 173.606 142.347 170.849C141.168 167.862 139.387 165.152 137.117 162.883C134.848 160.613 132.138 158.832 129.151 157.653C126.394 156.562 123.467 156 120.5 156C117.533 156 114.606 156.562 111.849 157.653C108.862 158.832 106.152 160.613 103.883 162.883C101.613 165.152 99.8317 167.862 98.6529 170.849C97.5623 173.606 97 176.533 97 179.5C97 182.467 97.5623 185.394 98.6529 188.151C99.8317 191.138 101.613 193.848 103.883 196.117C106.152 198.387 108.862 200.168 111.849 201.347C114.606 202.438 117.533 203 120.5 203C123.467 203 126.394 202.438 129.151 201.347C132.138 200.168 134.848 198.387 137.117 196.117C139.387 193.848 141.168 191.138 142.347 188.151C143.438 185.394 144 182.467 144 179.5Z" stroke="white" stroke-linecap="round" stroke-linejoin="round"/>
<path d="M85 120.5C85 117.54 84.4377 114.606 83.3471 111.849C82.1684 108.862 80.3867 106.152 78.1173 103.883C75.8479 101.613 73.1382 99.8317 70.1508 98.6529C67.3936 97.5623 64.4671 97 61.5 97C58.5329 97 55.6064 97.5623 52.8492 98.6529C49.8618 99.8317 47.1521 101.613 44.8827 103.883C42.6133 106.152 40.8317 108.862 39.6529 111.849C38.5623 114.606 38 117.533 38 120.5C38 123.467 38.5623 126.394 39.6529 129.151C40.8317 132.138 42.6133 134.848 44.8827 137.117C47.1521 139.387 49.8618 141.168 52.8492 142.347C55.6064 143.438 58.5329 144 61.5 144C64.4671 144 67.3936 143.438 70.1508 142.347C73.1382 141.168 75.8479 139.387 78.1173 137.117C80.3867 134.848 82.1684 132.138 83.3471 129.151C84.4377 126.394 85 123.467 85 120.5Z" stroke="white" stroke-linecap="round" stroke-linejoin="round"/>
<path d="M144 120.5C144 117.54 143.438 114.606 142.347 111.849C141.168 108.862 139.387 106.152 137.117 103.883C134.848 101.613 132.138 99.8317 129.151 98.6529C126.394 97.5623 123.467 97 120.5 97C117.533 97 114.606 97.5623 111.849 98.6529C108.862 99.8317 106.152 101.613 103.883 103.883C101.613 106.152 99.8317 108.862 98.6529 111.849C97.5623 114.606 97 117.533 97 120.5C97 123.467 97.5623 126.394 98.6529 129.151C99.8317 132.138 101.613 134.848 103.883 137.117C106.152 139.387 108.862 141.168 111.849 142.347C114.606 143.438 117.533 144 120.5 144C123.467 144 126.394 143.438 129.151 142.347C132.138 141.168 134.848 139.387 137.117 137.117C139.387 134.848 141.168 132.138 142.347 129.151C143.438 126.394 144 123.467 144 120.5Z" stroke="white" stroke-linecap="round" stroke-linejoin="round"/>
<path d="M203 120.5C203 117.54 202.438 114.606 201.347 111.849C200.168 108.862 198.387 106.152 196.117 103.883C193.848 101.613 191.138 99.8317 188.151 98.6529C185.394 97.5623 182.467 97 179.5 97C176.533 97 173.606 97.5623 170.849 98.6529C167.862 99.8317 165.152 101.613 162.883 103.883C160.613 106.152 158.832 108.862 157.653 111.849C156.562 114.606 156 117.533 156 120.5C156 123.467 156.562 126.394 157.653 129.151C158.832 132.138 160.613 134.848 162.883 137.117C165.152 139.387 167.862 141.168 170.849 142.347C173.606 143.438 176.533 144 179.5 144C182.467 144 185.394 143.438 188.151 142.347C191.138 141.168 193.848 139.387 196.117 137.117C198.387 134.848 200.168 132.138 201.347 129.151C202.438 126.394 203 123.467 203 120.5Z" stroke="white" stroke-linecap="round" stroke-linejoin="round"/>
<path d="M262 61.5C262 58.5396 261.438 55.6064 260.347 52.8492C259.168 49.8618 257.387 47.1521 255.117 44.8827C252.848 42.6133 250.138 40.8317 247.151 39.6529C244.394 38.5623 241.467 38 238.5 38C235.533 38 232.606 38.5623 229.849 39.6529C226.862 40.8317 224.152 42.6133 221.883 44.8827C219.613 47.1521 217.832 49.8618 216.653 52.8492C215.562 55.6064 215 58.5329 215 61.5C215 64.4671 215.562 67.3936 216.653 70.1508C217.832 73.1382 219.613 75.8479 221.883 78.1173C224.152 80.3867 226.862 82.1684 229.849 83.3471C232.606 84.4377 235.533 85 238.5 85C241.467 85 244.394 84.4377 247.151 83.3471C250.138 82.1684 252.848 80.3867 255.117 78.1173C257.387 75.8479 259.168 73.1382 260.347 70.1508C261.438 67.3936 262 64.4671 262 61.5Z" stroke="white" stroke-linecap="round" stroke-linejoin="round"/>
<path d="M262 179.5C262 176.54 261.438 173.606 260.347 170.849C259.168 167.862 257.387 165.152 255.117 162.883C252.848 160.613 250.138 158.832 247.151 157.653C244.394 156.562 241.467 156 238.5 156C235.533 156 232.606 156.562 229.849 157.653C226.862 158.832 224.152 160.613 221.883 162.883C219.613 165.152 217.832 167.862 216.653 170.849C215.562 173.606 215 176.533 215 179.5C215 182.467 215.562 185.394 216.653 188.151C217.832 191.138 219.613 193.848 221.883 196.117C224.152 198.387 226.862 200.168 229.849 201.347C232.606 202.438 235.533 203 238.5 203C241.467 203 244.394 202.438 247.151 201.347C250.138 200.168 252.848 198.387 255.117 196.117C257.387 193.848 259.168 191.138 260.347 188.151C261.438 185.394 262 182.467 262 179.5Z" stroke="white" stroke-linecap="round" stroke-linejoin="round"/>
<path d="M203 179.5C203 176.54 202.438 173.606 201.347 170.849C200.168 167.862 198.387 165.152 196.117 162.883C193.848 160.613 191.138 158.832 188.151 157.653C185.394 156.562 182.467 156 179.5 156C176.533 156 173.606 156.562 170.849 157.653C167.862 158.832 165.152 160.613 162.883 162.883C160.613 165.152 158.832 167.862 157.653 170.849C156.562 173.606 156 176.533 156 179.5C156 182.467 156.562 185.394 157.653 188.151C158.832 191.138 160.613 193.848 162.883 196.117C165.152 198.387 167.862 200.168 170.849 201.347C173.606 202.438 176.533 203 179.5 203C182.467 203 185.394 202.438 188.151 201.347C191.138 200.168 193.848 198.387 196.117 196.117C198.387 193.848 200.168 191.138 201.347 188.151C202.438 185.394 203 182.467 203 179.5Z" stroke="white" stroke-linecap="round" stroke-linejoin="round"/>
<path d="M203 238.5C203 235.54 202.438 232.606 201.347 229.849C200.168 226.862 198.387 224.152 196.117 221.883C193.848 219.613 191.138 217.832 188.151 216.653C185.394 215.562 182.467 215 179.5 215C176.533 215 173.606 215.562 170.849 216.653C167.862 217.832 165.152 219.613 162.883 221.883C160.613 224.152 158.832 226.862 157.653 229.849C156.562 232.606 156 235.533 156 238.5C156 241.467 156.562 244.394 157.653 247.151C158.832 250.138 160.613 252.848 162.883 255.117C165.152 257.387 167.862 259.168 170.849 260.347C173.606 261.438 176.533 262 179.5 262C182.467 262 185.394 261.438 188.151 260.347C191.138 259.168 193.848 257.387 196.117 255.117C198.387 252.848 200.168 250.138 201.347 247.151C202.438 244.394 203 241.467 203 238.5Z" stroke="white" stroke-linecap="round" stroke-linejoin="round"/>
</svg>
