<?xml version="1.0" standalone="no"?><!DOCTYPE svg PUBLIC "-//W3C//DTD SVG 1.1//EN" "http://www.w3.org/Graphics/SVG/1.1/DTD/svg11.dtd"><svg t="1720823739467" class="icon" viewBox="0 0 1024 1024" version="1.1" xmlns="http://www.w3.org/2000/svg" p-id="17036" xmlns:xlink="http://www.w3.org/1999/xlink" width="200" height="200"><path d="M640 128c0 23.594667 19.413333 42.666667 42.666667 42.666667 23.808 0 42.666667-19.072 42.666666-42.666667 0-23.594667-19.413333-42.666667-42.666666-42.666667-23.808 0-42.666667 19.072-42.666667 42.666667z m192 245.333333c0 17.706667 14.08 32 32 32 17.493333 0 32-14.293333 32-32S881.92 341.333333 864 341.333333s-32 14.293333-32 32zM256 213.333333c0 47.232 38.186667 85.333333 85.333333 85.333334s85.333333-38.101333 85.333334-85.333334-38.186667-85.333333-85.333334-85.333333-85.333333 38.101333-85.333333 85.333333z m-128 277.333334c0 35.114667 28.672 64 64 64S256 526.293333 256 490.666667c0-35.114667-28.672-64-64-64S128 455.04 128 490.666667zM128 810.666667c0 70.954667 57.173333 128 128 128s128-57.6 128-128c0-70.954667-57.173333-128-128-128s-128 57.045333-128 128z m566.528-21.333334c0 35.029333 28.714667 64 64 64s64-28.458667 64-64c0-35.029333-28.714667-64-64-64-35.285333 0.512-64 28.970667-64 64z m-375.210667-274.688c0 118.016 95.786667 213.333333 213.333334 213.333334 118.101333 0 213.333333-95.317333 213.333333-213.333334 0-117.973333-95.744-213.333333-213.333333-213.333333-118.101333 0-213.333333 95.36-213.333334 213.333333z" fill="#000000" fill-opacity=".9" p-id="17037"></path></svg>