<?xml version="1.0" standalone="no"?><!DOCTYPE svg PUBLIC "-//W3C//DTD SVG 1.1//EN" "http://www.w3.org/Graphics/SVG/1.1/DTD/svg11.dtd"><svg t="1720823781846" class="icon" viewBox="0 0 1024 1024" version="1.1" xmlns="http://www.w3.org/2000/svg" p-id="20220" xmlns:xlink="http://www.w3.org/1999/xlink" width="200" height="200"><path d="M896 505.514667l-52.906667-59.733334-43.690666-215.381333a79.189333 79.189333 0 0 0-77.141334-60.757333H301.397333c-36.522667 0-68.266667 24.917333-77.141333 61.781333l-43.690667 215.04-52.565333 59.050667c-16.384 18.432-25.6 42.325333-25.6 67.242666v252.928c0 15.701333 12.629333 28.672 28.330667 28.672h106.837333c15.701333 0 28.672-12.970667 28.672-28.672V744.106667h491.52v81.578666c0 15.701333 12.629333 28.672 28.330667 28.672h106.837333c15.701333 0 28.672-12.970667 28.672-28.672v-252.928c0-24.917333-9.216-48.810667-25.6-67.242666zM290.816 246.442667a10.922667 10.922667 0 0 1 10.581333-8.533334h420.864c5.12 0 9.557333 3.413333 10.581334 7.168l37.205333 183.296H253.610667l37.205333-181.930666z m-31.061333 405.845333c-8.533333 5.802667-18.432 8.874667-29.354667 8.874667-18.432 0-34.474667-8.874667-44.032-22.869334-6.144-8.533333-9.898667-19.456-9.898667-31.061333a53.930667 53.930667 0 1 1 107.861334 0c0 18.773333-9.898667 35.498667-24.576 45.056z m402.090666-13.312c0 9.557333-7.850667 17.066667-17.408 17.066667h-265.216c-9.557333 0-17.066667-7.509333-17.066666-17.066667v-63.488c0-9.557333 7.509333-17.408 17.066666-17.408h265.216c9.557333 0 17.408 7.850667 17.408 17.408v63.488z m77.824-31.744a53.930667 53.930667 0 1 1 107.861334 0c0 11.605333-3.754667 22.528-9.898667 31.061333-9.898667 13.994667-25.941333 22.869333-44.032 22.869334-10.922667 0-20.821333-3.072-29.354667-8.533334-14.677333-9.557333-24.576-26.282667-24.576-45.397333z" p-id="20221" fill="#2c2c2c"></path></svg>