<?xml version="1.0" standalone="no"?><!DOCTYPE svg PUBLIC "-//W3C//DTD SVG 1.1//EN" "http://www.w3.org/Graphics/SVG/1.1/DTD/svg11.dtd"><svg t="1720824001288" class="icon" viewBox="0 0 1032 1024" version="1.1" xmlns="http://www.w3.org/2000/svg" p-id="28658" xmlns:xlink="http://www.w3.org/1999/xlink" width="201.5625" height="200"><path d="M808.199595 758.113858c-27.919668 0-50.500692-22.581024-50.500691-50.392476V304.653719a50.500692 50.500692 0 0 1 48.119945-52.737151 50.500692 50.500692 0 0 1 52.845366 52.737151v403.031592c0 27.77538-22.544952 50.392476-50.500691 50.392475v0.036072z m151.429932-100.821023a50.500692 50.500692 0 0 1-50.500692-50.392476V405.366527A50.46462 50.46462 0 0 1 957.212708 352.70152a50.500692 50.500692 0 0 1 52.881438 48.011729v206.259254a50.500692 50.500692 0 0 1-50.500691 50.392475zM202.191295 808.542406a50.500692 50.500692 0 0 1-50.500691-50.428548V254.369459A50.500692 50.500692 0 0 1 199.810549 201.560164a50.500692 50.500692 0 0 1 52.845366 52.773223v503.744399a50.500692 50.500692 0 0 1-50.500692 50.392476z m151.502075 201.49776c-27.847524 0-50.500692-22.544952-50.500691-50.320332V52.871699A50.500692 50.500692 0 0 1 351.312624 0.062404 50.500692 50.500692 0 0 1 404.230134 48.110205q0.072144 2.344675 0 4.725422v906.775991c0 27.847524-22.653167 50.392476-50.500692 50.392476v0.036072z m151.502075-201.49776c-27.919668 0-50.500692-22.581024-50.500691-50.428548V254.369459A50.500692 50.500692 0 0 1 502.814699 201.560164a50.500692 50.500692 0 0 1 52.845366 52.773223v503.744399a50.500692 50.500692 0 0 1-50.500691 50.392476h0.108215-0.072144z m151.429932-151.213499a50.46462 50.46462 0 0 1-50.212117-50.320333v-201.642047a50.500692 50.500692 0 1 1 101.001384 0v201.569904c0 27.77538-22.472808 50.392476-50.356404 50.392476h-0.432863z m-606.0083 0c-27.919668 0-50.500692-22.581024-50.500692-50.428548h0.072144v-201.49776A50.428548 50.428548 0 0 1 48.308474 352.70152a50.500692 50.500692 0 0 1 52.881438 48.011729v206.259254c0 27.77538-22.544952 50.356404-50.428548 50.428547l-0.144287-0.036072z" p-id="28659"></path></svg>