<?xml version="1.0" standalone="no"?><!DOCTYPE svg PUBLIC "-//W3C//DTD SVG 1.1//EN" "http://www.w3.org/Graphics/SVG/1.1/DTD/svg11.dtd"><svg t="1720823667782" class="icon" viewBox="0 0 1024 1024" version="1.1" xmlns="http://www.w3.org/2000/svg" p-id="10967" xmlns:xlink="http://www.w3.org/1999/xlink" width="200" height="200"><path d="M322.517333 529.664a103.381333 103.381333 0 1 1 0-206.72V391.68a34.474667 34.474667 0 1 0 34.432 34.474667V98.944h69.034667v327.338667a103.68 103.68 0 0 1-103.466667 103.381333z" fill="#2c2c2c" p-id="10968"></path><path d="M684.330667 684.714667a120.618667 120.618667 0 0 0 0-241.194667v68.906667a51.669333 51.669333 0 1 1-51.712 51.712V98.944h-68.906667v465.066667a120.746667 120.746667 0 0 0 120.618667 120.704z" fill="#2c2c2c" p-id="10969"></path><path d="M529.237333 667.477333V98.944h-68.949333v568.533333a51.712 51.712 0 1 1-103.381333 0H288.042667a120.618667 120.618667 0 1 0 241.194666 0z" fill="#2c2c2c" p-id="10970"></path><path d="M924.373333 856.192v68.906667H99.669333v-68.906667z" fill="#2c2c2c" p-id="10971"></path></svg>