<?xml version="1.0" standalone="no"?><!DOCTYPE svg PUBLIC "-//W3C//DTD SVG 1.1//EN" "http://www.w3.org/Graphics/SVG/1.1/DTD/svg11.dtd"><svg t="1720823831851" class="icon" viewBox="0 0 1024 1024" version="1.1" xmlns="http://www.w3.org/2000/svg" p-id="22600" xmlns:xlink="http://www.w3.org/1999/xlink" width="200" height="200"><path d="M646.587733 793.736533a30.037333 30.037333 0 0 1-8.704 22.4256 31.8464 31.8464 0 0 1-22.4256 9.352534H133.5296a30.583467 30.583467 0 0 1-22.084267-9.352534 30.276267 30.276267 0 0 1-9.045333-22.4256c2.798933-147.2512 124.859733-267.093333 272.110933-267.093333s269.312 119.842133 272.0768 267.093333zM221.661867 343.586133c0-80.008533 65.365333-145.066667 145.373866-145.066666a145.237333 145.237333 0 0 1 0 290.474666 145.544533 145.544533 0 0 1-145.408-145.408zM570.709333 425.472c0-67.925333 55.296-123.221333 123.221334-123.221333 67.584 0 122.88 55.296 122.88 123.221333 0 67.584-55.296 122.88-122.88 122.88-67.925333 0-123.221333-55.296-123.221334-122.88zM921.6 790.698667c0 9.216-3.413333 18.090667-9.898667 24.576a34.133333 34.133333 0 0 1-24.234666 10.24h-177.493334c3.754667-10.922667 5.12-22.186667 4.778667-33.109334a337.92 337.92 0 0 0-78.506667-210.261333c20.48-6.144 41.984-9.216 63.488-9.216 120.149333 0 219.818667 97.621333 221.866667 217.770667z" p-id="22601" fill="#2c2c2c"></path></svg>