<?xml version="1.0" standalone="no"?><!DOCTYPE svg PUBLIC "-//W3C//DTD SVG 1.1//EN" "http://www.w3.org/Graphics/SVG/1.1/DTD/svg11.dtd"><svg t="1720823863028" class="icon" viewBox="0 0 1024 1024" version="1.1" xmlns="http://www.w3.org/2000/svg" p-id="25410" xmlns:xlink="http://www.w3.org/1999/xlink" width="200" height="200"><path d="M1020.440381 644.26179c0-102.585295-71.387429-191.444114-173.119391-220.379428l23.600762 28.579352c-14.628571-170.081524-165.507657-301.29981-346.58499-301.299809-178.195505 0-327.611733 127.1808-345.916952 293.95139l26.68739-28.554971c-113.683505 20.431238-197.685638 114.673371-197.685638 226.040686 0 127.595276 109.411962 230.170819 243.36579 230.170819l526.189715 1.662781c134.075733 0 243.46819-102.56579 243.46819-230.17082z m-239.372191 164.932267H227.523048c-43.081143 0-43.793067 64.282819-0.721677 65.233676 49.883429 1.102019 106.754438 1.774933 169.301334 2.067505 93.696 0.438857 194.052876 0.024381 292.361752-0.945981a21841.232457 21841.232457 0 0 0 93.105981-1.121524c43.217676-0.663162 42.720305-65.233676-0.507124-65.233676z m0 65.243429H227.523048l0.721676-65.238553c49.468952 1.092267 105.969371 1.760305 168.165181 2.052877 93.335162 0.438857 193.389714 0.024381 291.410895-0.941105a21770.776381 21770.776381 0 0 0 92.740267-1.111772l0.502247 65.233677zM519.904305 350.061714a39.009524 39.009524 0 1 1-0.975238-78.014171c65.448229-0.8192 121.378133 18.26621 165.829485 57.344 33.099581 29.096229 57.660952 63.000381 73.279391 101.429638a39.009524 39.009524 0 1 1-72.274895 29.383924c-10.966552-26.979962-28.335543-50.961067-52.516572-72.216381-29.393676-25.84381-66.525867-38.517029-113.342171-37.92701z" fill="#2c2c2c" p-id="25411"></path></svg>