<?xml version="1.0" standalone="no"?><!DOCTYPE svg PUBLIC "-//W3C//DTD SVG 1.1//EN" "http://www.w3.org/Graphics/SVG/1.1/DTD/svg11.dtd"><svg t="1720823893812" class="icon" viewBox="0 0 1024 1024" version="1.1" xmlns="http://www.w3.org/2000/svg" p-id="27489" xmlns:xlink="http://www.w3.org/1999/xlink" width="200" height="200"><path d="M212.8 212.8C84.8 212.8 0 384 0 545.6 0 694.4 72 819.2 171.2 848v132.8c0 25.6 17.6 43.2 43.2 43.2s43.2-17.6 43.2-43.2v-136c97.6-30.4 171.2-148.8 171.2-299.2-1.6-161.6-88-332.8-216-332.8zM256 750.4v-68.8c0-25.6-17.6-43.2-43.2-43.2s-43.2 17.6-43.2 43.2v72C118.4 723.2 84.8 643.2 84.8 544c0-136 68.8-248 128-248s128 110.4 128 248c0 96-38.4 177.6-84.8 206.4zM1024 422.4C1024 217.6 921.6 0 768 0S512 217.6 512 422.4c0 196.8 89.6 350.4 212.8 379.2v179.2c0 25.6 17.6 43.2 43.2 43.2s43.2-17.6 43.2-43.2V806.4c123.2-33.6 212.8-187.2 212.8-384zM811.2 712v-115.2c0-25.6-17.6-43.2-43.2-43.2s-43.2 17.6-43.2 43.2v115.2c-72-33.6-128-153.6-128-289.6 0-171.2 84.8-337.6 171.2-337.6s171.2 166.4 171.2 337.6c0 136-56 256-128 289.6z" p-id="27490" fill="#2c2c2c"></path></svg>